{"accessors" : [{"bufferView" : 0, "byteOffset" : 0, "componentType" : 5123, "count" : 6, "type" : "SCALAR", "max" : [5], "min" : [0]}, {"bufferView" : 1, "byteOffset" : 0, "componentType" : 5126, "count" : 6, "type" : "VEC3", "max" : [1, 1, -1], "min" : [-1, -1, -1], "name" : "POSITION"}, {"bufferView" : 1, "byteOffset" : 12, "componentType" : 5126, "count" : 6, "type" : "VEC3", "max" : [0, 0, -1.0000044107437134], "min" : [0, 0, -1.0000044107437134], "name" : "NORMAL"}, {"bufferView" : 1, "byteOffset" : 24, "componentType" : 5126, "count" : 6, "type" : "VEC2", "max" : [0.8905630111694336, 0.9441810250282288], "min" : [0.6442170143127441, 0.034807998687028885], "name" : "TEXCOORD_0"}, {"bufferView" : 0, "byteOffset" : 12, "componentType" : 5123, "count" : 6, "type" : "SCALAR", "max" : [5], "min" : [0]}, {"bufferView" : 2, "byteOffset" : 0, "componentType" : 5126, "count" : 6, "type" : "VEC3", "max" : [-1, 1, 1], "min" : [-1, -1, -1], "name" : "POSITION"}, {"bufferView" : 2, "byteOffset" : 12, "componentType" : 5126, "count" : 6, "type" : "VEC3", "max" : [-1.0000044107437134, 0, 0], "min" : [-1.0000044107437134, 0, 0], "name" : "NORMAL"}, {"bufferView" : 2, "byteOffset" : 24, "componentType" : 5126, "count" : 6, "type" : "VEC2", "max" : [0.9584029912948608, 0.6027770042419434], "min" : [0.006101000122725964, 0.2620150148868561], "name" : "TEXCOORD_0"}, {"bufferView" : 0, "byteOffset" : 24, "componentType" : 5123, "count" : 6, "type" : "SCALAR", "max" : [5], "min" : [0]}, {"bufferView" : 3, "byteOffset" : 0, "componentType" : 5126, "count" : 6, "type" : "VEC3", "max" : [1, 1, 1], "min" : [-1, -1, 1], "name" : "POSITION"}, {"bufferView" : 3, "byteOffset" : 12, "componentType" : 5126, "count" : 6, "type" : "VEC3", "max" : [0, 0, 1.0000044107437134], "min" : [0, 0, 1.0000044107437134], "name" : "NORMAL"}, {"bufferView" : 3, "byteOffset" : 24, "componentType" : 5126, "count" : 6, "type" : "VEC2", "max" : [0.6905109882354736, 0.9283859729766846], "min" : [0.45792698860168457, 0.04231699928641319], "name" : "TEXCOORD_0"}, {"bufferView" : 0, "byteOffset" : 36, "componentType" : 5123, "count" : 6, "type" : "SCALAR", "max" : [5], "min" : [0]}, {"bufferView" : 4, "byteOffset" : 0, "componentType" : 5126, "count" : 6, "type" : "VEC3", "max" : [1, 1, 1], "min" : [1, -1, -1], "name" : "POSITION"}, {"bufferView" : 4, "byteOffset" : 12, "componentType" : 5126, "count" : 6, "type" : "VEC3", "max" : [1.0000044107437134, 0, 0], "min" : [1.0000044107437134, 0, 0], "name" : "NORMAL"}, {"bufferView" : 4, "byteOffset" : 24, "componentType" : 5126, "count" : 6, "type" : "VEC2", "max" : [0.9554510116577148, 0.6287360191345215], "min" : [0.0036239998880773783, 0.2813819944858551], "name" : "TEXCOORD_0"}, {"bufferView" : 0, "byteOffset" : 48, "componentType" : 5123, "count" : 6, "type" : "SCALAR", "max" : [5], "min" : [0]}, {"bufferView" : 5, "byteOffset" : 0, "componentType" : 5126, "count" : 6, "type" : "VEC3", "max" : [1, -1, 1], "min" : [-1, -1, -1], "name" : "POSITION"}, {"bufferView" : 5, "byteOffset" : 12, "componentType" : 5126, "count" : 6, "type" : "VEC3", "max" : [0, -1.0000044107437134, 0], "min" : [0, -1.0000044107437134, 0], "name" : "NORMAL"}, {"bufferView" : 5, "byteOffset" : 24, "componentType" : 5126, "count" : 6, "type" : "VEC2", "max" : [0.9260330200195312, 0.9219350218772888], "min" : [0.039760999381542206, 0.036715999245643616], "name" : "TEXCOORD_0"}, {"bufferView" : 0, "byteOffset" : 60, "componentType" : 5123, "count" : 6, "type" : "SCALAR", "max" : [5], "min" : [0]}, {"bufferView" : 6, "byteOffset" : 0, "componentType" : 5126, "count" : 6, "type" : "VEC3", "max" : [1, 1, 1], "min" : [-1, 1, -1], "name" : "POSITION"}, {"bufferView" : 6, "byteOffset" : 12, "componentType" : 5126, "count" : 6, "type" : "VEC3", "max" : [0, 1.0000044107437134, 0], "min" : [0, 1.0000044107437134, 0], "name" : "NORMAL"}, {"bufferView" : 6, "byteOffset" : 24, "componentType" : 5126, "count" : 6, "type" : "VEC2", "max" : [0.9531800150871277, 0.9204379916191101], "min" : [0.09264999628067017, 0.07231999933719635], "name" : "TEXCOORD_0"}], "asset" : {"generator" : "Aspose.3D 22.5.1", "version" : "2.0"}, "buffers" : [{"uri" : "data:application/octet-stream;base64,", "byteLength" : 1252}], "bufferViews" : [{"buffer" : 0, "byteOffset" : 0, "byteLength" : 72, "target" : 34963}, {"buffer" : 0, "byteOffset" : 76, "byteLength" : 192, "byteStride" : 32, "target" : 34962}, {"buffer" : 0, "byteOffset" : 272, "byteLength" : 192, "byteStride" : 32, "target" : 34962}, {"buffer" : 0, "byteOffset" : 468, "byteLength" : 192, "byteStride" : 32, "target" : 34962}, {"buffer" : 0, "byteOffset" : 664, "byteLength" : 192, "byteStride" : 32, "target" : 34962}, {"buffer" : 0, "byteOffset" : 860, "byteLength" : 192, "byteStride" : 32, "target" : 34962}, {"buffer" : 0, "byteOffset" : 1056, "byteLength" : 192, "byteStride" : 32, "target" : 34962}], "images" : [{"uri" : "data:image/jpeg;base64,"}, {"uri" : "data:image/jpeg;base64,"}, {"uri" : "data:image/jpeg;base64,"}, {"uri" : "data:image/jpeg;base64,"}, {"uri" : "data:image/jpeg;base64,"}, {"uri" : "data:image/jpeg;base64,"}], "materials" : [{"name" : "Material.054", "pbrMetallicRoughness" : {"baseColorFactor" : [0.6392156862745098, 0.6392156862745098, 0.6392156862745098, 1], "baseColorTexture" : {"index" : 0, "texCoord" : 0}, "metallicFactor" : 0.5, "roughnessFactor" : 0.5}, "emissiveFactor" : [0, 0, 0], "alphaMode" : "OPAQUE", "doubleSided" : false}, {"name" : "Material.056", "pbrMetallicRoughness" : {"baseColorFactor" : [0.6392156862745098, 0.6392156862745098, 0.6392156862745098, 1], "baseColorTexture" : {"index" : 1, "texCoord" : 0}, "metallicFactor" : 0.5, "roughnessFactor" : 0.5}, "emissiveFactor" : [0, 0, 0], "alphaMode" : "OPAQUE", "doubleSided" : false}, {"name" : "Material.055", "pbrMetallicRoughness" : {"baseColorFactor" : [0.6392156862745098, 0.6392156862745098, 0.6392156862745098, 1], "baseColorTexture" : {"index" : 2, "texCoord" : 0}, "metallicFactor" : 0.5, "roughnessFactor" : 0.5}, "emissiveFactor" : [0, 0, 0], "alphaMode" : "OPAQUE", "doubleSided" : false}, {"name" : "Material.057", "pbrMetallicRoughness" : {"baseColorFactor" : [0.6392156862745098, 0.6392156862745098, 0.6392156862745098, 1], "baseColorTexture" : {"index" : 3, "texCoord" : 0}, "metallicFactor" : 0.5, "roughnessFactor" : 0.5}, "emissiveFactor" : [0, 0, 0], "alphaMode" : "OPAQUE", "doubleSided" : false}, {"name" : "Material.059", "pbrMetallicRoughness" : {"baseColorFactor" : [0.6392156862745098, 0.6392156862745098, 0.6392156862745098, 1], "baseColorTexture" : {"index" : 4, "texCoord" : 0}, "metallicFactor" : 0.5, "roughnessFactor" : 0.5}, "emissiveFactor" : [0, 0, 0], "alphaMode" : "OPAQUE", "doubleSided" : false}, {"name" : "Material.058", "pbrMetallicRoughness" : {"baseColorFactor" : [0.6392156862745098, 0.6392156862745098, 0.6392156862745098, 1], "baseColorTexture" : {"index" : 5, "texCoord" : 0}, "metallicFactor" : 0.5, "roughnessFactor" : 0.5}, "emissiveFactor" : [0, 0, 0], "alphaMode" : "OPAQUE", "doubleSided" : false}], "meshes" : [{"primitives" : [{"attributes" : {"POSITION" : 1, "NORMAL" : 2, "TEXCOORD_0" : 3}, "indices" : 0, "material" : 0, "mode" : 4}]}, {"primitives" : [{"attributes" : {"POSITION" : 5, "NORMAL" : 6, "TEXCOORD_0" : 7}, "indices" : 4, "material" : 1, "mode" : 4}]}, {"primitives" : [{"attributes" : {"POSITION" : 9, "NORMAL" : 10, "TEXCOORD_0" : 11}, "indices" : 8, "material" : 2, "mode" : 4}]}, {"primitives" : [{"attributes" : {"POSITION" : 13, "NORMAL" : 14, "TEXCOORD_0" : 15}, "indices" : 12, "material" : 3, "mode" : 4}]}, {"primitives" : [{"attributes" : {"POSITION" : 17, "NORMAL" : 18, "TEXCOORD_0" : 19}, "indices" : 16, "material" : 4, "mode" : 4}]}, {"primitives" : [{"attributes" : {"POSITION" : 21, "NORMAL" : 22, "TEXCOORD_0" : 23}, "indices" : 20, "material" : 5, "mode" : 4}]}], "nodes" : [{"mesh" : 0, "name" : "mesh_31_4"}, {"mesh" : 1, "name" : "mesh_31_0"}, {"mesh" : 2, "name" : "mesh_31_5"}, {"mesh" : 3, "name" : "mesh_31_2"}, {"matrix" : [1, 0, 0, 0, 0, 1, 0, 0, 0, 0, 1, 0, 0, 0, -0.017934, 1], "mesh" : 4, "name" : "mesh_31_3"}, {"mesh" : 5, "name" : "mesh_31_1"}, {"children" : [0, 1, 2, 3, 4, 5], "matrix" : [0.1, 0, 0, 0, 0, 8.881784197001253E-18, -0.04, 0, 0, 0.1799999866666667, 3.996802592591091E-17, 0, 0, 0, 0, 1], "name" : "P17"}, {"children" : [6], "name" : "Scene"}, {"children" : [7], "name" : "entity_133"}], "samplers" : [{"magFilter" : 9729, "minFilter" : 9987, "wrapS" : 10497, "wrapT" : 10497}, {"magFilter" : 9729, "minFilter" : 9987, "wrapS" : 10497, "wrapT" : 10497}, {"magFilter" : 9729, "minFilter" : 9987, "wrapS" : 10497, "wrapT" : 10497}, {"magFilter" : 9729, "minFilter" : 9987, "wrapS" : 10497, "wrapT" : 10497}, {"magFilter" : 9729, "minFilter" : 9987, "wrapS" : 10497, "wrapT" : 10497}, {"magFilter" : 9729, "minFilter" : 9987, "wrapS" : 10497, "wrapT" : 10497}], "scene" : 0, "scenes" : [{"nodes" : [8]}], "textures" : [{"sampler" : 0, "source" : 0, "name" : ""}, {"sampler" : 1, "source" : 1, "name" : ""}, {"sampler" : 2, "source" : 2, "name" : ""}, {"sampler" : 3, "source" : 3, "name" : ""}, {"sampler" : 4, "source" : 4, "name" : ""}, {"sampler" : 5, "source" : 5, "name" : ""}]}