{"accessors" : [{"bufferView" : 0, "byteOffset" : 0, "componentType" : 5123, "count" : 6, "type" : "SCALAR", "max" : [5], "min" : [0]}, {"bufferView" : 1, "byteOffset" : 0, "componentType" : 5126, "count" : 6, "type" : "VEC3", "max" : [-1, 1, 1], "min" : [-1, -1, -1], "name" : "POSITION"}, {"bufferView" : 1, "byteOffset" : 12, "componentType" : 5126, "count" : 6, "type" : "VEC3", "max" : [1, 1, 1], "min" : [1, 1, 1], "name" : "COLOR_0"}, {"bufferView" : 1, "byteOffset" : 24, "componentType" : 5126, "count" : 6, "type" : "VEC3", "max" : [-1.0000044107437134, 0, 0], "min" : [-1.0000044107437134, 0, 0], "name" : "NORMAL"}, {"bufferView" : 1, "byteOffset" : 36, "componentType" : 5126, "count" : 6, "type" : "VEC2", "max" : [0.9864619970321655, 0.9990400075912476], "min" : [0.02525700069963932, 0.00635500019416213], "name" : "TEXCOORD_0"}, {"bufferView" : 0, "byteOffset" : 12, "componentType" : 5123, "count" : 6, "type" : "SCALAR", "max" : [5], "min" : [0]}, {"bufferView" : 2, "byteOffset" : 0, "componentType" : 5126, "count" : 6, "type" : "VEC3", "max" : [1, 1, -1], "min" : [-1, -1, -1], "name" : "POSITION"}, {"bufferView" : 2, "byteOffset" : 12, "componentType" : 5126, "count" : 6, "type" : "VEC3", "max" : [1, 1, 1], "min" : [1, 1, 1], "name" : "COLOR_0"}, {"bufferView" : 2, "byteOffset" : 24, "componentType" : 5126, "count" : 6, "type" : "VEC3", "max" : [0, 0, -1.0000044107437134], "min" : [0, 0, -1.0000044107437134], "name" : "NORMAL"}, {"bufferView" : 2, "byteOffset" : 36, "componentType" : 5126, "count" : 6, "type" : "VEC2", "max" : [0.9884899854660034, 0.989171028137207], "min" : [0.0053090001456439495, 0.010828999802470207], "name" : "TEXCOORD_0"}, {"bufferView" : 0, "byteOffset" : 24, "componentType" : 5123, "count" : 6, "type" : "SCALAR", "max" : [5], "min" : [0]}, {"bufferView" : 3, "byteOffset" : 0, "componentType" : 5126, "count" : 6, "type" : "VEC3", "max" : [1, 1, 1], "min" : [-1, -1, 1], "name" : "POSITION"}, {"bufferView" : 3, "byteOffset" : 12, "componentType" : 5126, "count" : 6, "type" : "VEC3", "max" : [1, 1, 1], "min" : [1, 1, 1], "name" : "COLOR_0"}, {"bufferView" : 3, "byteOffset" : 24, "componentType" : 5126, "count" : 6, "type" : "VEC3", "max" : [0, 0, 1.0000044107437134], "min" : [0, 0, 1.0000044107437134], "name" : "NORMAL"}, {"bufferView" : 3, "byteOffset" : 36, "componentType" : 5126, "count" : 6, "type" : "VEC2", "max" : [0.9952589869499207, 0.9749820232391357], "min" : [0.028178999200463295, 0.02501799911260605], "name" : "TEXCOORD_0"}, {"bufferView" : 0, "byteOffset" : 36, "componentType" : 5123, "count" : 6, "type" : "SCALAR", "max" : [5], "min" : [0]}, {"bufferView" : 4, "byteOffset" : 0, "componentType" : 5126, "count" : 6, "type" : "VEC3", "max" : [1, 1, 1], "min" : [1, -1, -1], "name" : "POSITION"}, {"bufferView" : 4, "byteOffset" : 12, "componentType" : 5126, "count" : 6, "type" : "VEC3", "max" : [1, 1, 1], "min" : [1, 1, 1], "name" : "COLOR_0"}, {"bufferView" : 4, "byteOffset" : 24, "componentType" : 5126, "count" : 6, "type" : "VEC3", "max" : [1.0000044107437134, 0, 0], "min" : [1.0000044107437134, 0, 0], "name" : "NORMAL"}, {"bufferView" : 4, "byteOffset" : 36, "componentType" : 5126, "count" : 6, "type" : "VEC2", "max" : [0.9905679821968079, 0.995028018951416], "min" : [0.02896299958229065, 0.011553999967873096], "name" : "TEXCOORD_0"}, {"bufferView" : 0, "byteOffset" : 48, "componentType" : 5123, "count" : 6, "type" : "SCALAR", "max" : [5], "min" : [0]}, {"bufferView" : 5, "byteOffset" : 0, "componentType" : 5126, "count" : 6, "type" : "VEC3", "max" : [1, -1, 1], "min" : [-1, -1, -1], "name" : "POSITION"}, {"bufferView" : 5, "byteOffset" : 12, "componentType" : 5126, "count" : 6, "type" : "VEC3", "max" : [1, 1, 1], "min" : [1, 1, 1], "name" : "COLOR_0"}, {"bufferView" : 5, "byteOffset" : 24, "componentType" : 5126, "count" : 6, "type" : "VEC3", "max" : [0, -1.0000044107437134, 0], "min" : [0, -1.0000044107437134, 0], "name" : "NORMAL"}, {"bufferView" : 5, "byteOffset" : 36, "componentType" : 5126, "count" : 6, "type" : "VEC2", "max" : [0.9987599849700928, 0.9966949820518494], "min" : [0.000446999998530373, 0.003938999958336353], "name" : "TEXCOORD_0"}, {"bufferView" : 0, "byteOffset" : 60, "componentType" : 5123, "count" : 6, "type" : "SCALAR", "max" : [5], "min" : [0]}, {"bufferView" : 6, "byteOffset" : 0, "componentType" : 5126, "count" : 6, "type" : "VEC3", "max" : [1, 1, 1], "min" : [-1, 1, -1], "name" : "POSITION"}, {"bufferView" : 6, "byteOffset" : 12, "componentType" : 5126, "count" : 6, "type" : "VEC3", "max" : [1, 1, 1], "min" : [1, 1, 1], "name" : "COLOR_0"}, {"bufferView" : 6, "byteOffset" : 24, "componentType" : 5126, "count" : 6, "type" : "VEC3", "max" : [0, 1.0000044107437134, 0], "min" : [0, 1.0000044107437134, 0], "name" : "NORMAL"}, {"bufferView" : 6, "byteOffset" : 36, "componentType" : 5126, "count" : 6, "type" : "VEC2", "max" : [0.999563992023468, 0.9978110194206238], "min" : [-0.0012369999894872308, 0.010001000016927719], "name" : "TEXCOORD_0"}], "asset" : {"generator" : "Aspose.3D 22.5.1", "version" : "2.0"}, "buffers" : [{"uri" : "data:application/octet-stream;base64,", "byteLength" : 1684}], "bufferViews" : [{"buffer" : 0, "byteOffset" : 0, "byteLength" : 72, "target" : 34963}, {"buffer" : 0, "byteOffset" : 76, "byteLength" : 264, "byteStride" : 44, "target" : 34962}, {"buffer" : 0, "byteOffset" : 344, "byteLength" : 264, "byteStride" : 44, "target" : 34962}, {"buffer" : 0, "byteOffset" : 612, "byteLength" : 264, "byteStride" : 44, "target" : 34962}, {"buffer" : 0, "byteOffset" : 880, "byteLength" : 264, "byteStride" : 44, "target" : 34962}, {"buffer" : 0, "byteOffset" : 1148, "byteLength" : 264, "byteStride" : 44, "target" : 34962}, {"buffer" : 0, "byteOffset" : 1416, "byteLength" : 264, "byteStride" : 44, "target" : 34962}], "images" : [{"uri" : "data:image/jpeg;base64,"}, {"uri" : "data:image/jpeg;base64,"}, {"uri" : "data:image/jpeg;base64,"}, {"uri" : "data:image/jpeg;base64,"}, {"uri" : "data:image/jpeg;base64,"}, {"uri" : "data:image/jpeg;base64,"}], "materials" : [{"name" : "Material.044", "pbrMetallicRoughness" : {"baseColorFactor" : [0.6392156862745098, 0.6392156862745098, 0.6392156862745098, 1], "baseColorTexture" : {"index" : 0, "texCoord" : 0}, "metallicFactor" : 0.5, "roughnessFactor" : 0.5}, "emissiveFactor" : [0, 0, 0], "alphaMode" : "OPAQUE", "doubleSided" : false}, {"name" : "Material.042", "pbrMetallicRoughness" : {"baseColorFactor" : [0.6392156862745098, 0.6392156862745098, 0.6392156862745098, 1], "baseColorTexture" : {"index" : 1, "texCoord" : 0}, "metallicFactor" : 0.5, "roughnessFactor" : 0.5}, "emissiveFactor" : [0, 0, 0], "alphaMode" : "OPAQUE", "doubleSided" : false}, {"name" : "Material.043", "pbrMetallicRoughness" : {"baseColorFactor" : [0.6392156862745098, 0.6392156862745098, 0.6392156862745098, 1], "baseColorTexture" : {"index" : 2, "texCoord" : 0}, "metallicFactor" : 0.5, "roughnessFactor" : 0.5}, "emissiveFactor" : [0, 0, 0], "alphaMode" : "OPAQUE", "doubleSided" : false}, {"name" : "Material.045", "pbrMetallicRoughness" : {"baseColorFactor" : [0.6392156862745098, 0.6392156862745098, 0.6392156862745098, 1], "baseColorTexture" : {"index" : 3, "texCoord" : 0}, "metallicFactor" : 0.5, "roughnessFactor" : 0.5}, "emissiveFactor" : [0, 0, 0], "alphaMode" : "OPAQUE", "doubleSided" : false}, {"name" : "Material.047", "pbrMetallicRoughness" : {"baseColorFactor" : [0.6392156862745098, 0.6392156862745098, 0.6392156862745098, 1], "baseColorTexture" : {"index" : 4, "texCoord" : 0}, "metallicFactor" : 0.5, "roughnessFactor" : 0.5}, "emissiveFactor" : [0, 0, 0], "alphaMode" : "OPAQUE", "doubleSided" : false}, {"name" : "Material.046", "pbrMetallicRoughness" : {"baseColorFactor" : [0.6392156862745098, 0.6392156862745098, 0.6392156862745098, 1], "baseColorTexture" : {"index" : 5, "texCoord" : 0}, "metallicFactor" : 0.5, "roughnessFactor" : 0.5}, "emissiveFactor" : [0, 0, 0], "alphaMode" : "OPAQUE", "doubleSided" : false}], "meshes" : [{"primitives" : [{"attributes" : {"POSITION" : 1, "COLOR_0" : 2, "NORMAL" : 3, "TEXCOORD_0" : 4}, "indices" : 0, "material" : 0, "mode" : 4}]}, {"primitives" : [{"attributes" : {"POSITION" : 6, "COLOR_0" : 7, "NORMAL" : 8, "TEXCOORD_0" : 9}, "indices" : 5, "material" : 1, "mode" : 4}]}, {"primitives" : [{"attributes" : {"POSITION" : 11, "COLOR_0" : 12, "NORMAL" : 13, "TEXCOORD_0" : 14}, "indices" : 10, "material" : 2, "mode" : 4}]}, {"primitives" : [{"attributes" : {"POSITION" : 16, "COLOR_0" : 17, "NORMAL" : 18, "TEXCOORD_0" : 19}, "indices" : 15, "material" : 3, "mode" : 4}]}, {"primitives" : [{"attributes" : {"POSITION" : 21, "COLOR_0" : 22, "NORMAL" : 23, "TEXCOORD_0" : 24}, "indices" : 20, "material" : 4, "mode" : 4}]}, {"primitives" : [{"attributes" : {"POSITION" : 26, "COLOR_0" : 27, "NORMAL" : 28, "TEXCOORD_0" : 29}, "indices" : 25, "material" : 5, "mode" : 4}]}], "nodes" : [{"mesh" : 0, "name" : "mesh_98_0"}, {"mesh" : 1, "name" : "mesh_98_4"}, {"mesh" : 2, "name" : "mesh_98_5"}, {"mesh" : 3, "name" : "mesh_98_2"}, {"mesh" : 4, "name" : "mesh_98_3"}, {"mesh" : 5, "name" : "mesh_98_1"}, {"children" : [0, 1, 2, 3, 4, 5], "matrix" : [0.1, 0, 0, 0, 0, 7.401486830834377E-18, -0.03333333333333333, 0, 0, 0.13333333333333333, 2.960594732333751E-17, 0, 0, 0, 0, 1], "name" : "P3"}, {"children" : [6], "name" : "Scene"}, {"children" : [7], "name" : "entity_78"}], "samplers" : [{"magFilter" : 9729, "minFilter" : 9987, "wrapS" : 10497, "wrapT" : 10497}, {"magFilter" : 9729, "minFilter" : 9987, "wrapS" : 10497, "wrapT" : 10497}, {"magFilter" : 9729, "minFilter" : 9987, "wrapS" : 10497, "wrapT" : 10497}, {"magFilter" : 9729, "minFilter" : 9987, "wrapS" : 10497, "wrapT" : 10497}, {"magFilter" : 9729, "minFilter" : 9987, "wrapS" : 10497, "wrapT" : 10497}, {"magFilter" : 9729, "minFilter" : 9987, "wrapS" : 10497, "wrapT" : 10497}], "scene" : 0, "scenes" : [{"nodes" : [8]}], "textures" : [{"sampler" : 0, "source" : 0, "name" : ""}, {"sampler" : 1, "source" : 1, "name" : ""}, {"sampler" : 2, "source" : 2, "name" : ""}, {"sampler" : 3, "source" : 3, "name" : ""}, {"sampler" : 4, "source" : 4, "name" : ""}, {"sampler" : 5, "source" : 5, "name" : ""}]}