{"accessors" : [{"bufferView" : 0, "byteOffset" : 0, "componentType" : 5123, "count" : 6, "type" : "SCALAR", "max" : [5], "min" : [0]}, {"bufferView" : 1, "byteOffset" : 0, "componentType" : 5126, "count" : 6, "type" : "VEC3", "max" : [-0.9278870224952698, 1, 1], "min" : [-0.9744279980659485, -1, 0.7411760091781616], "name" : "POSITION"}, {"bufferView" : 1, "byteOffset" : 12, "componentType" : 5126, "count" : 6, "type" : "VEC3", "max" : [-0.9842193722724915, 0, -0.17697776854038239], "min" : [-0.9842193722724915, 0, -0.17697776854038239], "name" : "NORMAL"}, {"bufferView" : 1, "byteOffset" : 24, "componentType" : 5126, "count" : 6, "type" : "VEC2", "max" : [0.9875059723854065, 0.9809679985046387], "min" : [0.03661800175905228, 0.8473910093307495], "name" : "TEXCOORD_0"}, {"bufferView" : 0, "byteOffset" : 12, "componentType" : 5123, "count" : 6, "type" : "SCALAR", "max" : [5], "min" : [0]}, {"bufferView" : 2, "byteOffset" : 0, "componentType" : 5126, "count" : 6, "type" : "VEC3", "max" : [0.9744279980659485, 1, 1], "min" : [0.9278870224952698, -1, 0.7411760091781616], "name" : "POSITION"}, {"bufferView" : 2, "byteOffset" : 12, "componentType" : 5126, "count" : 6, "type" : "VEC3", "max" : [0.9842193722724915, 0, -0.17697776854038239], "min" : [0.9842193722724915, 0, -0.17697776854038239], "name" : "NORMAL"}, {"bufferView" : 2, "byteOffset" : 24, "componentType" : 5126, "count" : 6, "type" : "VEC2", "max" : [0.9875059723854065, 0.9809679985046387], "min" : [0.03661800175905228, 0.8473910093307495], "name" : "TEXCOORD_0"}, {"bufferView" : 0, "byteOffset" : 24, "componentType" : 5123, "count" : 6, "type" : "SCALAR", "max" : [5], "min" : [0]}, {"bufferView" : 3, "byteOffset" : 0, "componentType" : 5126, "count" : 6, "type" : "VEC3", "max" : [0.9001889824867249, 0.9196900129318237, 0.48235300183296204], "min" : [0.8383989930152893, -0.9196900129318237, -1], "name" : "POSITION"}, {"bufferView" : 3, "byteOffset" : 12, "componentType" : 5126, "count" : 6, "type" : "VEC3", "max" : [0.999136745929718, 0, -0.041648197919130325], "min" : [0.999136745929718, 0, -0.041648197919130325], "name" : "NORMAL"}, {"bufferView" : 3, "byteOffset" : 24, "componentType" : 5126, "count" : 6, "type" : "VEC2", "max" : [0.9297659993171692, 0.7138270139694214], "min" : [0.07268700003623962, 0.032673999667167664], "name" : "TEXCOORD_0"}, {"bufferView" : 0, "byteOffset" : 36, "componentType" : 5123, "count" : 6, "type" : "SCALAR", "max" : [5], "min" : [0]}, {"bufferView" : 4, "byteOffset" : 0, "componentType" : 5126, "count" : 6, "type" : "VEC3", "max" : [-0.8383989930152893, 0.9196900129318237, 0.48235300183296204], "min" : [-0.9001889824867249, -0.9196900129318237, -1], "name" : "POSITION"}, {"bufferView" : 4, "byteOffset" : 12, "componentType" : 5126, "count" : 6, "type" : "VEC3", "max" : [-0.999136745929718, 0, -0.041648197919130325], "min" : [-0.999136745929718, 0, -0.041648197919130325], "name" : "NORMAL"}, {"bufferView" : 4, "byteOffset" : 24, "componentType" : 5126, "count" : 6, "type" : "VEC2", "max" : [0.9297659993171692, 0.7138270139694214], "min" : [0.07268700003623962, 0.032673999667167664], "name" : "TEXCOORD_0"}, {"bufferView" : 0, "byteOffset" : 48, "componentType" : 5123, "count" : 6, "type" : "SCALAR", "max" : [5], "min" : [0]}, {"bufferView" : 5, "byteOffset" : 0, "componentType" : 5126, "count" : 6, "type" : "VEC3", "max" : [0.9278870224952698, 0.9610499739646912, 0.7411760091781616], "min" : [0.9105349779129028, -0.9610499739646912, 0.6117650270462036], "name" : "POSITION"}, {"bufferView" : 5, "byteOffset" : 12, "componentType" : 5126, "count" : 6, "type" : "VEC3", "max" : [0.9911344647407532, 0, -0.1328955888748169], "min" : [0.9911344647407532, 0, -0.1328955888748169], "name" : "NORMAL"}, {"bufferView" : 5, "byteOffset" : 24, "componentType" : 5126, "count" : 6, "type" : "VEC2", "max" : [0.9483259916305542, 0.8473970293998718], "min" : [0.05411100015044212, 0.7806079983711243], "name" : "TEXCOORD_0"}, {"bufferView" : 0, "byteOffset" : 60, "componentType" : 5123, "count" : 12, "type" : "SCALAR", "max" : [11], "min" : [0]}, {"bufferView" : 6, "byteOffset" : 0, "componentType" : 5126, "count" : 12, "type" : "VEC3", "max" : [-0.9001889824867249, 0.9610499739646912, 0.7411760091781616], "min" : [-0.9278870224952698, -0.9610499739646912, 0.48235300183296204], "name" : "POSITION"}, {"bufferView" : 6, "byteOffset" : 12, "componentType" : 5126, "count" : 12, "type" : "VEC3", "max" : [-0.9911344647407532, 0, -0.07968933880329132], "min" : [-0.9968241453170776, 0, -0.1328955888748169], "name" : "NORMAL"}, {"bufferView" : 6, "byteOffset" : 24, "componentType" : 5126, "count" : 12, "type" : "VEC2", "max" : [0.9483259916305542, 0.8473970293998718], "min" : [0.05411100015044212, 0.7138239741325378], "name" : "TEXCOORD_0"}, {"bufferView" : 0, "byteOffset" : 84, "componentType" : 5123, "count" : 6, "type" : "SCALAR", "max" : [5], "min" : [0]}, {"bufferView" : 7, "byteOffset" : 0, "componentType" : 5126, "count" : 6, "type" : "VEC3", "max" : [0.9105349779129028, 0.9407699704170227, 0.6117650270462036], "min" : [0.9001889824867249, -0.9407699704170227, 0.48235300183296204], "name" : "POSITION"}, {"bufferView" : 7, "byteOffset" : 12, "componentType" : 5126, "count" : 6, "type" : "VEC3", "max" : [0.9968241453170776, 0, -0.07968933880329132], "min" : [0.9968241453170776, 0, -0.07968933880329132], "name" : "NORMAL"}, {"bufferView" : 7, "byteOffset" : 24, "componentType" : 5126, "count" : 6, "type" : "VEC2", "max" : [0.9392250180244446, 0.7806119918823242], "min" : [0.06321900337934494, 0.7138239741325378], "name" : "TEXCOORD_0"}, {"bufferView" : 0, "byteOffset" : 96, "componentType" : 5123, "count" : 6, "type" : "SCALAR", "max" : [5], "min" : [0]}, {"bufferView" : 8, "byteOffset" : 0, "componentType" : 5126, "count" : 6, "type" : "VEC3", "max" : [0.9744279980659485, 1, 1], "min" : [-0.9744279980659485, 0.9610499739646912, 0.7411760091781616], "name" : "POSITION"}, {"bufferView" : 8, "byteOffset" : 12, "componentType" : 5126, "count" : 6, "type" : "VEC3", "max" : [0, 0.988869845867157, -0.14881272614002228], "min" : [0, 0.988869845867157, -0.14881272614002228], "name" : "NORMAL"}, {"bufferView" : 8, "byteOffset" : 24, "componentType" : 5126, "count" : 6, "type" : "VEC2", "max" : [0.9864479899406433, 0.9369210004806519], "min" : [0.013551999814808369, 0.823835015296936], "name" : "TEXCOORD_0"}, {"bufferView" : 0, "byteOffset" : 108, "componentType" : 5123, "count" : 6, "type" : "SCALAR", "max" : [5], "min" : [0]}, {"bufferView" : 9, "byteOffset" : 0, "componentType" : 5126, "count" : 6, "type" : "VEC3", "max" : [0.9001889824867249, 0.9196900129318237, 0.48235300183296204], "min" : [-0.9001889824867249, 0.6788349747657776, -1], "name" : "POSITION"}, {"bufferView" : 9, "byteOffset" : 12, "componentType" : 5126, "count" : 6, "type" : "VEC3", "max" : [0, 0.9870598912239075, -0.1603786200284958], "min" : [0, 0.9870598912239075, -0.1603786200284958], "name" : "NORMAL"}, {"bufferView" : 9, "byteOffset" : 24, "componentType" : 5126, "count" : 6, "type" : "VEC2", "max" : [0.9493870139122009, 0.7107499837875366], "min" : [0.050613000988960266, 0.013864000327885151], "name" : "TEXCOORD_0"}, {"bufferView" : 0, "byteOffset" : 120, "componentType" : 5123, "count" : 6, "type" : "SCALAR", "max" : [5], "min" : [0]}, {"bufferView" : 10, "byteOffset" : 0, "componentType" : 5126, "count" : 6, "type" : "VEC3", "max" : [0.9278870224952698, 0.9610499739646912, 0.7411760091781616], "min" : [-0.9278870224952698, 0.9407699704170227, 0.6117650270462036], "name" : "POSITION"}, {"bufferView" : 10, "byteOffset" : 12, "componentType" : 5126, "count" : 6, "type" : "VEC3", "max" : [0, 0.9879471063613892, -0.15481963753700256], "min" : [0, 0.9879471063613892, -0.15481963753700256], "name" : "NORMAL"}, {"bufferView" : 10, "byteOffset" : 24, "componentType" : 5126, "count" : 6, "type" : "VEC2", "max" : [0.9632139801979065, 0.823835015296936], "min" : [0.036786001175642014, 0.7672929763793945], "name" : "TEXCOORD_0"}, {"bufferView" : 0, "byteOffset" : 132, "componentType" : 5123, "count" : 6, "type" : "SCALAR", "max" : [5], "min" : [0]}, {"bufferView" : 11, "byteOffset" : 0, "componentType" : 5126, "count" : 6, "type" : "VEC3", "max" : [0.9105349779129028, 0.9407699704170227, 0.6117650270462036], "min" : [-0.9105349779129028, 0.9196900129318237, 0.48235300183296204], "name" : "POSITION"}, {"bufferView" : 11, "byteOffset" : 12, "componentType" : 5126, "count" : 6, "type" : "VEC3", "max" : [0, 0.9869955778121948, -0.16077475249767303], "min" : [0, 0.9869955778121948, -0.16077475249767303], "name" : "NORMAL"}, {"bufferView" : 11, "byteOffset" : 24, "componentType" : 5126, "count" : 6, "type" : "VEC2", "max" : [0.9545519948005676, 0.7672929763793945], "min" : [0.045448001474142075, 0.7107499837875366], "name" : "TEXCOORD_0"}, {"bufferView" : 0, "byteOffset" : 144, "componentType" : 5123, "count" : 6, "type" : "SCALAR", "max" : [5], "min" : [0]}, {"bufferView" : 12, "byteOffset" : 0, "componentType" : 5126, "count" : 6, "type" : "VEC3", "max" : [0.9744279980659485, -0.9610499739646912, 1], "min" : [-0.9744279980659485, -1, 0.7411760091781616], "name" : "POSITION"}, {"bufferView" : 12, "byteOffset" : 12, "componentType" : 5126, "count" : 6, "type" : "VEC3", "max" : [0, -0.988869845867157, -0.14881272614002228], "min" : [0, -0.988869845867157, -0.14881272614002228], "name" : "NORMAL"}, {"bufferView" : 12, "byteOffset" : 24, "componentType" : 5126, "count" : 6, "type" : "VEC2", "max" : [0.9984279870986938, 0.901977002620697], "min" : [0.0015719999792054296, 0.7512680292129517], "name" : "TEXCOORD_0"}, {"bufferView" : 0, "byteOffset" : 156, "componentType" : 5123, "count" : 6, "type" : "SCALAR", "max" : [5], "min" : [0]}, {"bufferView" : 13, "byteOffset" : 0, "componentType" : 5126, "count" : 6, "type" : "VEC3", "max" : [0.9001889824867249, -0.6788349747657776, 0.48235300183296204], "min" : [-0.9001889824867249, -0.9196900129318237, -1], "name" : "POSITION"}, {"bufferView" : 13, "byteOffset" : 12, "componentType" : 5126, "count" : 6, "type" : "VEC3", "max" : [0, -0.9870598912239075, -0.1603786200284958], "min" : [0, -0.9870598912239075, -0.1603786200284958], "name" : "NORMAL"}, {"bufferView" : 13, "byteOffset" : 24, "componentType" : 5126, "count" : 6, "type" : "VEC2", "max" : [0.9486799836158752, 0.698989987373352], "min" : [0.05132000148296356, 0.10786599665880203], "name" : "TEXCOORD_0"}, {"bufferView" : 0, "byteOffset" : 168, "componentType" : 5123, "count" : 6, "type" : "SCALAR", "max" : [5], "min" : [0]}, {"bufferView" : 14, "byteOffset" : 0, "componentType" : 5126, "count" : 6, "type" : "VEC3", "max" : [0.9278870224952698, -0.9407699704170227, 0.7411760091781616], "min" : [-0.9278870224952698, -0.9610499739646912, 0.6117650270462036], "name" : "POSITION"}, {"bufferView" : 14, "byteOffset" : 12, "componentType" : 5126, "count" : 6, "type" : "VEC3", "max" : [0, -0.9879471063613892, -0.15481963753700256], "min" : [0, -0.9879471063613892, -0.15481963753700256], "name" : "NORMAL"}, {"bufferView" : 14, "byteOffset" : 24, "componentType" : 5126, "count" : 6, "type" : "VEC2", "max" : [0.9624850153923035, 0.8004840016365051], "min" : [0.03751499950885773, 0.7005209922790527], "name" : "TEXCOORD_0"}, {"bufferView" : 0, "byteOffset" : 180, "componentType" : 5123, "count" : 6, "type" : "SCALAR", "max" : [5], "min" : [0]}, {"bufferView" : 15, "byteOffset" : 0, "componentType" : 5126, "count" : 6, "type" : "VEC3", "max" : [0.9105349779129028, -0.9196900129318237, 0.6117650270462036], "min" : [-0.9105349779129028, -0.9407699704170227, 0.48235300183296204], "name" : "POSITION"}, {"bufferView" : 15, "byteOffset" : 12, "componentType" : 5126, "count" : 6, "type" : "VEC3", "max" : [0, -0.9869955778121948, -0.16077475249767303], "min" : [0, -0.9869955778121948, -0.16077475249767303], "name" : "NORMAL"}, {"bufferView" : 15, "byteOffset" : 24, "componentType" : 5126, "count" : 6, "type" : "VEC2", "max" : [0.953836977481842, 0.749737024307251], "min" : [0.046163998544216156, 0.6497740149497986], "name" : "TEXCOORD_0"}, {"bufferView" : 0, "byteOffset" : 192, "componentType" : 5123, "count" : 6, "type" : "SCALAR", "max" : [5], "min" : [0]}, {"bufferView" : 16, "byteOffset" : 0, "componentType" : 5126, "count" : 6, "type" : "VEC3", "max" : [0.8383989930152893, 0.6788349747657776, -1], "min" : [-0.8383989930152893, -0.6788349747657776, -1], "name" : "POSITION"}, {"bufferView" : 16, "byteOffset" : 12, "componentType" : 5126, "count" : 6, "type" : "VEC3", "max" : [0, 0, -1.0000044107437134], "min" : [0, 0, -1.0000044107437134], "name" : "NORMAL"}, {"bufferView" : 16, "byteOffset" : 24, "componentType" : 5126, "count" : 6, "type" : "VEC2", "max" : [0.9699190258979797, 0.9793840050697327], "min" : [0.010394999757409096, 0.005255000200122595], "name" : "TEXCOORD_0"}, {"bufferView" : 0, "byteOffset" : 204, "componentType" : 5123, "count" : 6, "type" : "SCALAR", "max" : [5], "min" : [0]}, {"bufferView" : 17, "byteOffset" : 0, "componentType" : 5126, "count" : 6, "type" : "VEC3", "max" : [0.9744279980659485, 1, 1], "min" : [-0.9744279980659485, -1, 1], "name" : "POSITION"}, {"bufferView" : 17, "byteOffset" : 12, "componentType" : 5126, "count" : 6, "type" : "VEC3", "max" : [0, 0, 1.0000044107437134], "min" : [0, 0, 1.0000044107437134], "name" : "NORMAL"}, {"bufferView" : 17, "byteOffset" : 24, "componentType" : 5126, "count" : 6, "type" : "VEC2", "max" : [0.9845920205116272, 0.9144300222396851], "min" : [0.010486000217497349, 0.08786900341510773], "name" : "TEXCOORD_0"}], "asset" : {"generator" : "Aspose.3D 22.5.1", "version" : "2.0"}, "buffers" : [{"uri" : "data:application/octet-stream;base64,", "byteLength" : 3744}], "bufferViews" : [{"buffer" : 0, "byteOffset" : 0, "byteLength" : 216, "target" : 34963}, {"buffer" : 0, "byteOffset" : 220, "byteLength" : 192, "byteStride" : 32, "target" : 34962}, {"buffer" : 0, "byteOffset" : 416, "byteLength" : 192, "byteStride" : 32, "target" : 34962}, {"buffer" : 0, "byteOffset" : 612, "byteLength" : 192, "byteStride" : 32, "target" : 34962}, {"buffer" : 0, "byteOffset" : 808, "byteLength" : 192, "byteStride" : 32, "target" : 34962}, {"buffer" : 0, "byteOffset" : 1004, "byteLength" : 192, "byteStride" : 32, "target" : 34962}, {"buffer" : 0, "byteOffset" : 1200, "byteLength" : 384, "byteStride" : 32, "target" : 34962}, {"buffer" : 0, "byteOffset" : 1588, "byteLength" : 192, "byteStride" : 32, "target" : 34962}, {"buffer" : 0, "byteOffset" : 1784, "byteLength" : 192, "byteStride" : 32, "target" : 34962}, {"buffer" : 0, "byteOffset" : 1980, "byteLength" : 192, "byteStride" : 32, "target" : 34962}, {"buffer" : 0, "byteOffset" : 2176, "byteLength" : 192, "byteStride" : 32, "target" : 34962}, {"buffer" : 0, "byteOffset" : 2372, "byteLength" : 192, "byteStride" : 32, "target" : 34962}, {"buffer" : 0, "byteOffset" : 2568, "byteLength" : 192, "byteStride" : 32, "target" : 34962}, {"buffer" : 0, "byteOffset" : 2764, "byteLength" : 192, "byteStride" : 32, "target" : 34962}, {"buffer" : 0, "byteOffset" : 2960, "byteLength" : 192, "byteStride" : 32, "target" : 34962}, {"buffer" : 0, "byteOffset" : 3156, "byteLength" : 192, "byteStride" : 32, "target" : 34962}, {"buffer" : 0, "byteOffset" : 3352, "byteLength" : 192, "byteStride" : 32, "target" : 34962}, {"buffer" : 0, "byteOffset" : 3548, "byteLength" : 192, "byteStride" : 32, "target" : 34962}], "images" : [{"uri" : "data:image/jpeg;base64,"}, {"uri" : "data:image/jpeg;base64,"}, {"uri" : "data:image/jpeg;base64,"}, {"uri" : "data:image/jpeg;base64,"}, {"uri" : "data:image/jpeg;base64,"}], "materials" : [{"name" : "Material.026", "pbrMetallicRoughness" : {"baseColorFactor" : [0.6392156862745098, 0.6392156862745098, 0.6392156862745098, 1], "baseColorTexture" : {"index" : 0, "texCoord" : 0}, "metallicFactor" : 0.5, "roughnessFactor" : 0.5}, "emissiveFactor" : [0, 0, 0], "alphaMode" : "OPAQUE", "doubleSided" : false}, {"name" : "Material.026", "pbrMetallicRoughness" : {"baseColorFactor" : [0.6392156862745098, 0.6392156862745098, 0.6392156862745098, 1], "baseColorTexture" : {"index" : 0, "texCoord" : 0}, "metallicFactor" : 0.5, "roughnessFactor" : 0.5}, "emissiveFactor" : [0, 0, 0], "alphaMode" : "OPAQUE", "doubleSided" : false}, {"name" : "Material.026", "pbrMetallicRoughness" : {"baseColorFactor" : [0.6392156862745098, 0.6392156862745098, 0.6392156862745098, 1], "baseColorTexture" : {"index" : 0, "texCoord" : 0}, "metallicFactor" : 0.5, "roughnessFactor" : 0.5}, "emissiveFactor" : [0, 0, 0], "alphaMode" : "OPAQUE", "doubleSided" : false}, {"name" : "Material.026", "pbrMetallicRoughness" : {"baseColorFactor" : [0.6392156862745098, 0.6392156862745098, 0.6392156862745098, 1], "baseColorTexture" : {"index" : 0, "texCoord" : 0}, "metallicFactor" : 0.5, "roughnessFactor" : 0.5}, "emissiveFactor" : [0, 0, 0], "alphaMode" : "OPAQUE", "doubleSided" : false}, {"name" : "Material.026", "pbrMetallicRoughness" : {"baseColorFactor" : [0.6392156862745098, 0.6392156862745098, 0.6392156862745098, 1], "baseColorTexture" : {"index" : 0, "texCoord" : 0}, "metallicFactor" : 0.5, "roughnessFactor" : 0.5}, "emissiveFactor" : [0, 0, 0], "alphaMode" : "OPAQUE", "doubleSided" : false}, {"name" : "Material.026", "pbrMetallicRoughness" : {"baseColorFactor" : [0.6392156862745098, 0.6392156862745098, 0.6392156862745098, 1], "baseColorTexture" : {"index" : 0, "texCoord" : 0}, "metallicFactor" : 0.5, "roughnessFactor" : 0.5}, "emissiveFactor" : [0, 0, 0], "alphaMode" : "OPAQUE", "doubleSided" : false}, {"name" : "Material.026", "pbrMetallicRoughness" : {"baseColorFactor" : [0.6392156862745098, 0.6392156862745098, 0.6392156862745098, 1], "baseColorTexture" : {"index" : 0, "texCoord" : 0}, "metallicFactor" : 0.5, "roughnessFactor" : 0.5}, "emissiveFactor" : [0, 0, 0], "alphaMode" : "OPAQUE", "doubleSided" : false}, {"name" : "Material.027", "pbrMetallicRoughness" : {"baseColorFactor" : [0.6392156862745098, 0.6392156862745098, 0.6392156862745098, 1], "baseColorTexture" : {"index" : 1, "texCoord" : 0}, "metallicFactor" : 0.5, "roughnessFactor" : 0.5}, "emissiveFactor" : [0, 0, 0], "alphaMode" : "OPAQUE", "doubleSided" : false}, {"name" : "Material.027", "pbrMetallicRoughness" : {"baseColorFactor" : [0.6392156862745098, 0.6392156862745098, 0.6392156862745098, 1], "baseColorTexture" : {"index" : 1, "texCoord" : 0}, "metallicFactor" : 0.5, "roughnessFactor" : 0.5}, "emissiveFactor" : [0, 0, 0], "alphaMode" : "OPAQUE", "doubleSided" : false}, {"name" : "Material.027", "pbrMetallicRoughness" : {"baseColorFactor" : [0.6392156862745098, 0.6392156862745098, 0.6392156862745098, 1], "baseColorTexture" : {"index" : 1, "texCoord" : 0}, "metallicFactor" : 0.5, "roughnessFactor" : 0.5}, "emissiveFactor" : [0, 0, 0], "alphaMode" : "OPAQUE", "doubleSided" : false}, {"name" : "Material.027", "pbrMetallicRoughness" : {"baseColorFactor" : [0.6392156862745098, 0.6392156862745098, 0.6392156862745098, 1], "baseColorTexture" : {"index" : 1, "texCoord" : 0}, "metallicFactor" : 0.5, "roughnessFactor" : 0.5}, "emissiveFactor" : [0, 0, 0], "alphaMode" : "OPAQUE", "doubleSided" : false}, {"name" : "Material.028", "pbrMetallicRoughness" : {"baseColorFactor" : [0.6392156862745098, 0.6392156862745098, 0.6392156862745098, 1], "baseColorTexture" : {"index" : 2, "texCoord" : 0}, "metallicFactor" : 0.5, "roughnessFactor" : 0.5}, "emissiveFactor" : [0, 0, 0], "alphaMode" : "OPAQUE", "doubleSided" : false}, {"name" : "Material.028", "pbrMetallicRoughness" : {"baseColorFactor" : [0.6392156862745098, 0.6392156862745098, 0.6392156862745098, 1], "baseColorTexture" : {"index" : 2, "texCoord" : 0}, "metallicFactor" : 0.5, "roughnessFactor" : 0.5}, "emissiveFactor" : [0, 0, 0], "alphaMode" : "OPAQUE", "doubleSided" : false}, {"name" : "Material.028", "pbrMetallicRoughness" : {"baseColorFactor" : [0.6392156862745098, 0.6392156862745098, 0.6392156862745098, 1], "baseColorTexture" : {"index" : 2, "texCoord" : 0}, "metallicFactor" : 0.5, "roughnessFactor" : 0.5}, "emissiveFactor" : [0, 0, 0], "alphaMode" : "OPAQUE", "doubleSided" : false}, {"name" : "Material.028", "pbrMetallicRoughness" : {"baseColorFactor" : [0.6392156862745098, 0.6392156862745098, 0.6392156862745098, 1], "baseColorTexture" : {"index" : 2, "texCoord" : 0}, "metallicFactor" : 0.5, "roughnessFactor" : 0.5}, "emissiveFactor" : [0, 0, 0], "alphaMode" : "OPAQUE", "doubleSided" : false}, {"name" : "Material.023", "pbrMetallicRoughness" : {"baseColorFactor" : [0.6392156862745098, 0.6392156862745098, 0.6392156862745098, 1], "baseColorTexture" : {"index" : 3, "texCoord" : 0}, "metallicFactor" : 0.5, "roughnessFactor" : 0.5}, "emissiveFactor" : [0, 0, 0], "alphaMode" : "OPAQUE", "doubleSided" : false}, {"name" : "Material.024", "pbrMetallicRoughness" : {"baseColorFactor" : [0.6392156862745098, 0.6392156862745098, 0.6392156862745098, 1], "baseColorTexture" : {"index" : 4, "texCoord" : 0}, "metallicFactor" : 0.5, "roughnessFactor" : 0.5}, "emissiveFactor" : [0, 0, 0], "alphaMode" : "OPAQUE", "doubleSided" : false}], "meshes" : [{"primitives" : [{"attributes" : {"POSITION" : 1, "NORMAL" : 2, "TEXCOORD_0" : 3}, "indices" : 0, "material" : 0, "mode" : 4}]}, {"primitives" : [{"attributes" : {"POSITION" : 5, "NORMAL" : 6, "TEXCOORD_0" : 7}, "indices" : 4, "material" : 1, "mode" : 4}]}, {"primitives" : [{"attributes" : {"POSITION" : 9, "NORMAL" : 10, "TEXCOORD_0" : 11}, "indices" : 8, "material" : 2, "mode" : 4}]}, {"primitives" : [{"attributes" : {"POSITION" : 13, "NORMAL" : 14, "TEXCOORD_0" : 15}, "indices" : 12, "material" : 3, "mode" : 4}]}, {"primitives" : [{"attributes" : {"POSITION" : 17, "NORMAL" : 18, "TEXCOORD_0" : 19}, "indices" : 16, "material" : 4, "mode" : 4}]}, {"primitives" : [{"attributes" : {"POSITION" : 21, "NORMAL" : 22, "TEXCOORD_0" : 23}, "indices" : 20, "material" : 5, "mode" : 4}]}, {"primitives" : [{"attributes" : {"POSITION" : 25, "NORMAL" : 26, "TEXCOORD_0" : 27}, "indices" : 24, "material" : 6, "mode" : 4}]}, {"primitives" : [{"attributes" : {"POSITION" : 29, "NORMAL" : 30, "TEXCOORD_0" : 31}, "indices" : 28, "material" : 7, "mode" : 4}]}, {"primitives" : [{"attributes" : {"POSITION" : 33, "NORMAL" : 34, "TEXCOORD_0" : 35}, "indices" : 32, "material" : 8, "mode" : 4}]}, {"primitives" : [{"attributes" : {"POSITION" : 37, "NORMAL" : 38, "TEXCOORD_0" : 39}, "indices" : 36, "material" : 9, "mode" : 4}]}, {"primitives" : [{"attributes" : {"POSITION" : 41, "NORMAL" : 42, "TEXCOORD_0" : 43}, "indices" : 40, "material" : 10, "mode" : 4}]}, {"primitives" : [{"attributes" : {"POSITION" : 45, "NORMAL" : 46, "TEXCOORD_0" : 47}, "indices" : 44, "material" : 11, "mode" : 4}]}, {"primitives" : [{"attributes" : {"POSITION" : 49, "NORMAL" : 50, "TEXCOORD_0" : 51}, "indices" : 48, "material" : 12, "mode" : 4}]}, {"primitives" : [{"attributes" : {"POSITION" : 53, "NORMAL" : 54, "TEXCOORD_0" : 55}, "indices" : 52, "material" : 13, "mode" : 4}]}, {"primitives" : [{"attributes" : {"POSITION" : 57, "NORMAL" : 58, "TEXCOORD_0" : 59}, "indices" : 56, "material" : 14, "mode" : 4}]}, {"primitives" : [{"attributes" : {"POSITION" : 61, "NORMAL" : 62, "TEXCOORD_0" : 63}, "indices" : 60, "material" : 15, "mode" : 4}]}, {"primitives" : [{"attributes" : {"POSITION" : 65, "NORMAL" : 66, "TEXCOORD_0" : 67}, "indices" : 64, "material" : 16, "mode" : 4}]}], "nodes" : [{"mesh" : 0, "name" : "mesh_45_0"}, {"mesh" : 1, "name" : "mesh_45_2"}, {"mesh" : 2, "name" : "mesh_45_7"}, {"mesh" : 3, "name" : "mesh_45_9"}, {"mesh" : 4, "name" : "mesh_45_11"}, {"mesh" : 5, "name" : "mesh_45_13"}, {"mesh" : 6, "name" : "mesh_45_15"}, {"mesh" : 7, "name" : "mesh_45_1"}, {"mesh" : 8, "name" : "mesh_45_8"}, {"mesh" : 9, "name" : "mesh_45_12"}, {"mesh" : 10, "name" : "mesh_45_14"}, {"mesh" : 11, "name" : "mesh_45_3"}, {"mesh" : 12, "name" : "mesh_45_6"}, {"mesh" : 13, "name" : "mesh_45_10"}, {"mesh" : 14, "name" : "mesh_45_16"}, {"mesh" : 15, "name" : "mesh_45_4"}, {"mesh" : 16, "name" : "mesh_45_5"}, {"children" : [0, 1, 2, 3, 4, 5, 6, 7, 8, 9, 10, 11, 12, 13, 14, 15, 16], "matrix" : [0.1, 0, 0, 0, 0, 8.401687753920104E-18, -0.03783783783783784, 0, 0, 0.032432432432432434, 7.201446646217232E-18, 0, 0, 0, 0, 1], "name" : "P7"}, {"children" : [17], "name" : "Scene"}, {"children" : [18], "name" : "entity_99"}], "samplers" : [{"magFilter" : 9729, "minFilter" : 9987, "wrapS" : 10497, "wrapT" : 10497}, {"magFilter" : 9729, "minFilter" : 9987, "wrapS" : 10497, "wrapT" : 10497}, {"magFilter" : 9729, "minFilter" : 9987, "wrapS" : 10497, "wrapT" : 10497}, {"magFilter" : 9729, "minFilter" : 9987, "wrapS" : 10497, "wrapT" : 10497}, {"magFilter" : 9729, "minFilter" : 9987, "wrapS" : 10497, "wrapT" : 10497}], "scene" : 0, "scenes" : [{"nodes" : [19]}], "textures" : [{"sampler" : 0, "source" : 0, "name" : ""}, {"sampler" : 1, "source" : 1, "name" : ""}, {"sampler" : 2, "source" : 2, "name" : ""}, {"sampler" : 3, "source" : 3, "name" : ""}, {"sampler" : 4, "source" : 4, "name" : ""}]}